<?xml version="1.0" encoding="utf-8"?>
<svg version="1.1" id="Capa_1" xmlns="http://www.w3.org/2000/svg" xmlns:xlink="http://www.w3.org/1999/xlink" x="24px" y="24px"
	 viewBox="0 0 333.8 292.3" style="enable-background:new 0 0 333.8 292.3;" xml:space="preserve">
<g>
	<path d="M26.2,77.4c0-2.7,2.2-4.8,4.8-4.8c4.8,0,9.2,0.1,13.5-0.1c3.3-0.2,4.3,1.3,5.8,4c4.4,8,8.3,16.6,14.3,23.3
		c25.9,28.8,59.8,37.5,97.2,36.6c1.1,0,2.7-0.9,3.2-1.8c0.6-1.1,1.1-2.2,1.6-3.4c1.3-3-0.7-6.4-4-6.7c0,0,0,0-0.1,0
		c-13.3-1.2-26.9-1.1-39.8-4.1c-26-6.1-46.9-20-59.4-44.5c-0.3-0.6-0.6-1.2-0.8-1.9c-0.9-2.2,0.2-4.8,2.3-5.9
		c0.1-0.1,0.3-0.1,0.4-0.2c14-7.2,20.9-20.3,19.2-36.4C82.7,17.1,73.6,6.9,58.5,2.9c-3.7-1-7.6-1.6-11.4-1.7
		c-9.4-0.2-18.8-0.1-28.2-0.1c-2.6,0-4.8,2.1-4.8,4.8v2.2c0,2.6,2.2,4.8,4.8,4.8c2.3,0,4.5,0,6.7,0c9.2,0.2,18.4-0.2,27.4,1
		c11.3,1.5,18.6,10.3,19.3,21.1c0.8,12.4-4.9,22-16.7,24.6c-7.9,1.7-16.1,1.7-24.5,2.1c-2.7,0.1-5-2-5-4.8v-14
		c0-2.6-2.1-4.8-4.8-4.8h-2.5c-2.6,0-4.8,2.1-4.8,4.8v70.5c0,2.6,2.1,4.8,4.8,4.8h2.5c2.6,0,4.8-2.1,4.8-4.8V77.4z"/>
	<path d="M222.2,156.3v106h12v-107h99.1c0,0,0.4-1.8,0.4-2.9c0.2-7.5,0.2-7.6-7.4-7.6c-44.5-0.1-89.1-0.1-133.6-0.2
		c-1.3,0-2.3,0.1-3.5,0.1l0,11.6H222.2z"/>
	<path d="M148.1,49.3c-12.6,0-26.1,0-38.9,0c0-12.2,0-23.9,0-36c19.6,0,38.7,0,58,0c0-4,0-8.1,0-12c-23.1,0-45.8,0-68.7,0
		c-0.1,0.9-0.4,1.7-0.4,2.5c0.1,24.6,0.1,49.3,0.2,73.9c0.1,14.4,6.9,24.9,19.3,30.5c8,3.6,16.9,5.4,25.4,7.6
		c3.1,0.8,6.6,0.5,10.1,0.8c0-4.6,0-8.3,0-11.8c-7.2-1.2-14.2-1.7-20.8-3.7c-20.3-6.2-24.3-17.8-21.4-39.3c9.3,0,18.6,0,28,0
		C149.7,61.9,149.7,61.8,148.1,49.3z"/>
	<path d="M34.3,143.4C34.3,144.4,34.4,143,34.3,143.4c-2.2,0.1-4.3,0.1-6.5,0.3c-17.7,1.6-28.4,13.9-27.7,31.5
		c0.5,11.6,6.4,19.8,16.3,25.1c8.4,4.5,17.1,8.2,25.5,12.7c9.9,5.3,13,12,11.2,22.2c-1.5,8.1-8.2,14-18,15.6
		c-9.7,1.6-19,0.3-27.5-4.7c-2.8-1.6-4.8-1.3-6.5,0.8c-2.6,3.2,0,11.5,3.9,12.8c12,3.9,24.1,5,36.4,1.8
		c14.2-3.8,22.9-13.9,24.5-28.2c1.7-14.7-3.9-24.9-17.8-32.1c-5.5-2.8-11.3-5-16.7-7.9c-4.7-2.5-9.5-5-13.5-8.3
		c-5.5-4.6-6.6-11-4.7-17.8c1.7-6.2,6.1-9.8,12.3-11.1c9.1-1.9,18-1.2,26.2,3.5c3.6,2.1,6.4,1.9,8.5-1.2c2.1-3,0.2-9.7-3-10.6
		C49.7,145.8,41.8,145.2,34.3,143.4z"/>
	<g>
		<path d="M167.1,145.6c-2.1,0-2.2,0-4.3,0c-14.7,38.1-29.4,76.2-44.4,114.8c-0.4,0.9,0,1.9,1,2c1.5,0.2,2.7,0.2,3.7,0.3
			c9,0.7,8.8-1.3,10.9-7.1c9.3-25.7,19.2-51.1,28.9-76.7c0.2-0.5,0.4-1.1,0.7-1.6c0.5-1.1,2.2-1.1,2.6,0.1c0,0,0,0,0,0
			c10,26.8,20,53.7,30.1,80.5c0.6,1.7,1.9,4.2,3.2,4.4c3.1,0.5,6.4,0.3,10.2,0.2c1,0,1.7-1,1.3-2
			C196.2,221.5,181.6,183.5,167.1,145.6z"/>
	</g>
	<path d="M254.2,120.1C237.6,79.3,223,39.1,205.9,0c-0.8,0-0.8,0-1.6,0c-15.2,39.4-30.5,78.7-45.9,118.6c0,0,0,0,0,0
		c2.5,0.1,4.7,0.3,6.5,0.4c5.3,0.5,7.4-1.3,9.2-6.1c9.6-25.9,19.6-51.7,29.4-77.5c0.5-1.4,1.2-2.8,2.2-5c0,0,0,0,0,0
		c1.3,3.3,2.3,5.6,3.2,7.9c9.9,25.8,19.8,51.6,29.8,77.4c0.7,1.7,2.4,3.8,4,4.1C246.1,120.5,249.6,120.1,254.2,120.1
		C254.2,120.1,254.2,120.1,254.2,120.1z"/>
	<path d="M331.7,108.3c-18.7,0-37.8,0-57.5,0c0-35.5,0-70.6,0-106c-4.4,0-8.1,0-12,0c0,39.3,0,78.3,0,117.9c2.1,0,3.9,0,5.7,0
		c18.5,0,36.9,0.1,55.4,0.1c10.6,0,10.6,0,9.4-10.8C332.6,109.4,332.5,109.3,331.7,108.3z"/>
	<path d="M107.2,261.3v-105h31v-11h-72v11h28.7c0,3.3,0,6.1,0,8.9c0,29-0.1,58-0.1,87c0,10.9,0,10.9,11,9.8
		C106.1,262,107.2,261.3,107.2,261.3z"/>
	<path d="M333.2,262.3c0-4.1,0-7.9,0-12c-17.2,0-34,0-51,0c0-14.6,0-27.8,0-43c11.9,0,23.4,0,35,0c0-4.3,0-8,0-12c-16,0-31.3,0-47,0
		c0,22.5,0,44.6,0,67C291.3,262.3,312,262.3,333.2,262.3z"/>
	<path d="M0.2,292.3c42.3,0,84,0,126,0c0-3.9,0-7.4,0-11c-42.2,0-84,0-126,0C0.2,285.1,0.2,288.5,0.2,292.3z"/>
	<path d="M207.5,292.3c42.3,0,84,0,126,0c0-3.5,0-6.6,0-10c-42.2,0-84.1,0-126,0C207.5,285.8,207.5,288.9,207.5,292.3z"/>
	<path d="M168.5,276.3c-0.3,0-0.3,0-0.6,0l-6.2,14c-0.1,0.1,0,0.2,0.1,0.2c0.2,0,0.4,0,0.5,0c1.3,0.1,2.1,0.1,2.4-0.6
		c0.3-0.9,0.6-1.8,1-2.7c3.3-7.1,2.5-5.3,2.6-5.5c0.1-0.1-0.1-0.2,0,0c0,0,0.5,1.2,0.5,1.2c1.4,3.3,1.8,4.1,3.2,7.3
		c0.1,0.2,0.9,0.3,1.1,0.3c0.4,0.1,0.9,0,1.4,0c0.1,0,0.2-0.1,0.2-0.2C172.6,285.6,170.6,281,168.5,276.3z"/>
	<path d="M183.2,276.1c-1.6,0-2.8,0-4,0v15.6c1.2,0,2.4,0,4,0V276.1z"/>
</g>
</svg>
